<svg width="15" height="18" viewBox="0 0 15 18" fill="none" xmlns="http://www.w3.org/2000/svg">
<path d="M13.3285 8.3466L13.2906 8.30861L13.2454 8.27956L2.74538 1.5297L2.72271 1.51513L2.6986 1.50308C2.60076 1.45416 2.46056 1.39404 2.2875 1.39404C2.11444 1.39404 1.97424 1.45416 1.8764 1.50308C1.71243 1.58506 1.59358 1.70541 1.51523 1.82293C1.44604 1.92672 1.375 2.07939 1.375 2.25029V15.75C1.375 15.8992 1.41078 16.0769 1.51523 16.2336C1.60761 16.3722 1.7569 16.4934 1.95271 16.5348L2.0429 16.625H2.25C2.25279 16.625 2.25578 16.625 2.25898 16.625C2.34373 16.6253 2.56972 16.6261 2.7797 16.4485L13.2454 9.72073L13.2906 9.69168L13.3286 9.6537C13.4155 9.56674 13.4817 9.46104 13.5253 9.37376C13.5611 9.30228 13.625 9.15901 13.625 9.00015C13.625 8.84128 13.5611 8.69802 13.5253 8.62654C13.4817 8.53926 13.4155 8.43356 13.3285 8.3466Z" fill="#009FDF" stroke="white"/>
</svg>
