<svg width="17" height="15" viewBox="0 0 17 15" fill="none" xmlns="http://www.w3.org/2000/svg">
<path d="M8.06667 14.1111C7.83724 14.1112 7.6156 14.0345 7.44308 13.8952C6.79113 13.3704 6.16281 12.8769 5.60885 12.4415L5.60602 12.4395C3.9804 11.1644 2.57661 10.0613 1.6001 8.97603C0.508578 7.76272 0 6.6121 0 5.35525C0 4.1341 0.454695 3.00786 1.27995 2.18292C2.11498 1.34841 3.26101 0.888916 4.50599 0.888916C5.43744 0.888916 6.29011 1.16003 7.041 1.69499C7.43214 1.97704 7.77724 2.3094 8.06572 2.68189C8.35432 2.30939 8.69952 1.97703 9.09076 1.69499C9.84228 1.16003 10.6953 0.888916 11.6273 0.888916C12.8733 0.888916 14.0193 1.34841 14.8546 2.18292C15.679 3.00786 16.1333 4.1341 16.1333 5.35525C16.1333 6.6121 15.6251 7.76272 14.5332 8.97603C13.5564 10.0616 12.1533 11.1632 10.5283 12.4392C9.97273 12.8746 9.34347 13.3681 8.69026 13.8955C8.51768 14.0347 8.29605 14.1113 8.06667 14.1111ZM4.50599 1.75972C3.52917 1.75972 2.62891 2.11936 1.97444 2.77304C1.31052 3.4363 0.945312 4.35354 0.945312 5.35525C0.945312 6.4124 1.37165 7.35809 2.32799 8.42075C3.25219 9.44801 4.62825 10.5272 6.2189 11.7768L6.22173 11.7791C6.77821 12.216 7.40904 12.7112 8.06572 13.24C8.72744 12.7103 9.35765 12.2142 9.91538 11.7765C11.5073 10.5284 12.8818 9.44801 13.806 8.42075C14.762 7.3578 15.188 6.4124 15.188 5.35525C15.188 4.35354 14.8225 3.4363 14.1586 2.77188C13.5047 2.11936 12.6042 1.75972 11.6273 1.75972C10.9102 1.75972 10.2519 1.96987 9.67055 2.38379C9.15157 2.75272 8.79141 3.21947 8.57903 3.54602C8.52613 3.62775 8.45111 3.69542 8.3613 3.74242C8.27148 3.78942 8.16996 3.81413 8.06667 3.81413C7.96337 3.81413 7.86185 3.78942 7.77204 3.74242C7.68222 3.69542 7.6072 3.62775 7.55431 3.54602C7.34193 3.21947 6.98176 2.75272 6.46373 2.3835C5.88236 1.96958 5.22411 1.75972 4.50599 1.75972Z" fill="#00ACFF"/>
</svg>
