<svg width="19" height="13" viewBox="0 0 19 13" fill="none" xmlns="http://www.w3.org/2000/svg">
<path d="M18.7391 6.23025C18.6987 6.17541 17.7298 4.87188 16.1559 3.55288C15.2239 2.77192 14.2717 2.14807 13.3263 1.6984C12.1189 1.12357 10.9171 0.833252 9.75438 0.833252C8.59164 0.833252 7.3899 1.12357 6.18284 1.69807C5.23704 2.14774 4.28522 2.7716 3.35325 3.55256C1.77823 4.87189 0.810099 6.17541 0.769686 6.23025C0.710858 6.30999 0.679443 6.40387 0.679443 6.49992C0.679443 6.59597 0.710858 6.68984 0.769686 6.76959C0.810099 6.82443 1.77894 8.12795 3.35325 9.44696C4.28522 10.2279 5.23704 10.8518 6.18284 11.3014C7.3899 11.8756 8.59164 12.1666 9.75438 12.1666C10.9171 12.1666 12.1189 11.8763 13.3259 11.3018C14.2717 10.8521 15.2239 10.2282 16.1559 9.44728C17.7298 8.12795 18.6987 6.82443 18.7391 6.76991C18.798 6.69013 18.8294 6.59619 18.8294 6.50008C18.8294 6.40396 18.798 6.31003 18.7391 6.23025ZM15.4185 8.74923C14.0814 9.86534 12.0132 11.1985 9.75438 11.1985C7.49554 11.1985 5.42741 9.86534 4.09025 8.74923C3.27478 8.0627 2.52996 7.3098 1.86508 6.49992C2.52993 5.68991 3.27475 4.9369 4.09025 4.25028C5.42741 3.13289 7.49554 1.80098 9.75438 1.80098C12.0132 1.80098 14.0814 3.13289 15.4185 4.25028C16.2341 4.93682 16.9789 5.68983 17.6437 6.49992C16.9789 7.30988 16.2341 8.06279 15.4185 8.74923ZM9.75438 3.94287C9.1986 3.94287 8.6553 4.09284 8.19318 4.37381C7.73107 4.65478 7.37089 5.05414 7.1582 5.52138C6.94551 5.98862 6.88986 6.50276 6.99829 6.99877C7.10672 7.49479 7.37435 7.95042 7.76735 8.30802C8.16035 8.66563 8.66106 8.90917 9.20616 9.00783C9.75127 9.1065 10.3163 9.05586 10.8298 8.86232C11.3432 8.66879 11.7821 8.34104 12.0909 7.92054C12.3997 7.50003 12.5645 7.00565 12.5645 6.49992C12.5636 5.82198 12.2673 5.17203 11.7405 4.69266C11.2137 4.21329 10.4994 3.94364 9.75438 3.94287ZM9.75438 8.08892C9.40892 8.08892 9.07122 7.9957 8.78399 7.82105C8.49675 7.6464 8.27289 7.39816 8.1407 7.10773C8.00851 6.8173 7.97395 6.49772 8.04137 6.18942C8.10879 5.88111 8.27517 5.59792 8.51948 5.37566C8.76378 5.1534 9.07503 5.00206 9.41386 4.94077C9.75269 4.87948 10.1039 4.911 10.423 5.03134C10.7422 5.15169 11.0149 5.35544 11.2068 5.61685C11.3987 5.87825 11.5011 6.18557 11.501 6.49992C11.5003 6.92122 11.3161 7.32509 10.9887 7.62297C10.6613 7.92084 10.2174 8.08841 9.75438 8.08892Z" fill="#00ACFF"/>
</svg>
