<svg width="17" height="16" viewBox="0 0 17 16" fill="none" xmlns="http://www.w3.org/2000/svg">
<path d="M14.7453 0.888916H2.08853C1.62762 0.889385 1.18574 1.06109 0.859825 1.36635C0.533914 1.67161 0.350598 2.08549 0.350098 2.5172L0.350098 11.2014C0.350681 11.633 0.534034 12.0468 0.859936 12.352C1.18584 12.6572 1.62768 12.8289 2.08853 12.8293H6.09949L7.42797 15.318C7.66051 15.7512 8.01973 16 8.41676 16C8.8138 16 9.17301 15.7512 9.40556 15.318L10.734 12.8293H14.7453C15.2061 12.8288 15.6479 12.6571 15.9737 12.3519C16.2995 12.0467 16.4828 11.633 16.4834 11.2014V2.5172C16.4829 2.08555 16.2997 1.6717 15.9738 1.36645C15.648 1.0612 15.2062 0.889463 14.7453 0.888916V0.888916ZM15.5381 11.2014C15.5379 11.3982 15.4543 11.587 15.3056 11.7262C15.157 11.8654 14.9555 11.9437 14.7453 11.9439H10.4419C10.3541 11.9439 10.2681 11.9668 10.1934 12.01C10.1187 12.0532 10.0583 12.1151 10.0191 12.1886L8.56014 14.9219C8.50121 15.032 8.44607 15.0863 8.41676 15.1069C8.38746 15.0863 8.33232 15.032 8.27339 14.9219L6.81446 12.1886C6.77519 12.1151 6.71482 12.0532 6.64013 12.01C6.56544 11.9668 6.47938 11.9439 6.39159 11.9439H2.08853C1.87829 11.9438 1.6767 11.8655 1.528 11.7263C1.37931 11.5871 1.29566 11.3983 1.29541 11.2014V2.5172C1.29566 2.32025 1.3793 2.13143 1.52799 1.99217C1.67667 1.85291 1.87826 1.77457 2.08853 1.77433H14.7453C14.9556 1.77457 15.1571 1.85292 15.3057 1.99219C15.4544 2.13146 15.538 2.32028 15.5381 2.5172V11.2014Z" fill="#00ACFF"/>
</svg>
