<svg width="15" height="18" viewBox="0 0 15 18" fill="none" xmlns="http://www.w3.org/2000/svg">
<path d="M1.67145 8.3466L1.70944 8.30861L1.75463 8.27956L12.2546 1.5297L12.2773 1.51513L12.3014 1.50308C12.3992 1.45416 12.5394 1.39404 12.7125 1.39404C12.8856 1.39404 13.0258 1.45416 13.1236 1.50308C13.2876 1.58506 13.4064 1.70541 13.4848 1.82293C13.554 1.92672 13.625 2.07939 13.625 2.25029V15.75C13.625 15.8992 13.5892 16.0769 13.4848 16.2336C13.3924 16.3722 13.2431 16.4934 13.0473 16.5348L12.9571 16.625H12.75C12.7472 16.625 12.7442 16.625 12.741 16.625C12.6563 16.6253 12.4303 16.6261 12.2203 16.4485L1.75463 9.72073L1.70944 9.69168L1.67145 9.6537C1.58449 9.56674 1.51831 9.46104 1.47466 9.37376C1.43892 9.30228 1.375 9.15901 1.375 9.00015C1.375 8.84128 1.43892 8.69802 1.47466 8.62654C1.51831 8.53926 1.58449 8.43356 1.67145 8.3466Z" fill="#009FDF" stroke="white"/>
</svg>
