<svg width="14" height="17" viewBox="0 0 14 17" fill="none" xmlns="http://www.w3.org/2000/svg">
<path d="M12.4535 7.45255L12.4156 7.41457L12.3704 7.38552L1.87038 0.635657L1.84771 0.621085L1.8236 0.609033C1.72576 0.560114 1.58556 0.5 1.4125 0.5C1.23944 0.5 1.09924 0.560114 1.0014 0.609033C0.837425 0.691018 0.718578 0.811369 0.640228 0.928891C0.571036 1.03268 0.5 1.18535 0.5 1.35624V14.856C0.5 15.0051 0.53578 15.1829 0.640228 15.3396C0.732609 15.4781 0.881905 15.5993 1.07771 15.6408L1.1679 15.731H1.375C1.37779 15.731 1.38078 15.731 1.38398 15.731C1.46873 15.7313 1.69472 15.732 1.9047 15.5545L12.3704 8.82669L12.4156 8.79764L12.4536 8.75965C12.5405 8.67269 12.6067 8.56699 12.6503 8.47971C12.6861 8.40823 12.75 8.26497 12.75 8.1061C12.75 7.94724 12.6861 7.80398 12.6503 7.7325C12.6067 7.64522 12.5405 7.53952 12.4535 7.45255Z" fill="#009FDF" stroke="white"/>
</svg>
