<svg width="29" height="9" viewBox="0 0 29 9" fill="none" xmlns="http://www.w3.org/2000/svg">
<path d="M0.78 0.599999H3.624L6.456 6.3H6.48L6.444 0.599999H8.484V9H5.712L2.784 3.264H2.76L2.832 9H0.78V0.599999ZM10.0495 0.599999H15.9535V2.184H12.2815V3.924H15.7495V5.508H12.2815V7.416H16.0855V9H10.0495V0.599999ZM16.7601 0.599999H19.0401L20.1201 7.056H20.1441L21.2721 0.599999H24.1041L25.2801 7.056H25.3041L26.3961 0.599999H28.5681L26.6961 9H23.8281L22.6401 2.544H22.6161L21.5121 9H18.6201L16.7601 0.599999Z" fill="#00ACFF"/>
</svg>
